<svg id="visual" viewBox="0 0 1980 150" width="1980" height="150" xmlns="http://www.w3.org/2000/svg" xmlns:xlink="http://www.w3.org/1999/xlink" version="1.1"><rect x="0" y="0" width="1980" height="150" fill="#FFFFFF"></rect><path d="M0 112L41.3 116.7C82.7 121.3 165.3 130.7 247.8 134.2C330.3 137.7 412.7 135.3 495.2 115.5C577.7 95.7 660.3 58.3 742.8 40.7C825.3 23 907.7 25 990.2 33.5C1072.7 42 1155.3 57 1237.8 63.8C1320.3 70.7 1402.7 69.3 1485.2 65.2C1567.7 61 1650.3 54 1732.8 54.5C1815.3 55 1897.7 63 1938.8 67L1980 71L1980 151L1938.8 151C1897.7 151 1815.3 151 1732.8 151C1650.3 151 1567.7 151 1485.2 151C1402.7 151 1320.3 151 1237.8 151C1155.3 151 1072.7 151 990.2 151C907.7 151 825.3 151 742.8 151C660.3 151 577.7 151 495.2 151C412.7 151 330.3 151 247.8 151C165.3 151 82.7 151 41.3 151L0 151Z" fill="#ffffff"></path><path d="M0 86L41.3 78C82.7 70 165.3 54 247.8 52C330.3 50 412.7 62 495.2 75.5C577.7 89 660.3 104 742.8 99.2C825.3 94.3 907.7 69.7 990.2 56.7C1072.7 43.7 1155.3 42.3 1237.8 44.7C1320.3 47 1402.7 53 1485.2 62.7C1567.7 72.3 1650.3 85.7 1732.8 93.2C1815.3 100.7 1897.7 102.3 1938.8 103.2L1980 104L1980 151L1938.8 151C1897.7 151 1815.3 151 1732.8 151C1650.3 151 1567.7 151 1485.2 151C1402.7 151 1320.3 151 1237.8 151C1155.3 151 1072.7 151 990.2 151C907.7 151 825.3 151 742.8 151C660.3 151 577.7 151 495.2 151C412.7 151 330.3 151 247.8 151C165.3 151 82.7 151 41.3 151L0 151Z" fill="#cedbed"></path><path d="M0 103L41.3 105.5C82.7 108 165.3 113 247.8 116.7C330.3 120.3 412.7 122.7 495.2 113.2C577.7 103.7 660.3 82.3 742.8 80.3C825.3 78.3 907.7 95.7 990.2 97.3C1072.7 99 1155.3 85 1237.8 90C1320.3 95 1402.7 119 1485.2 121.5C1567.7 124 1650.3 105 1732.8 105.7C1815.3 106.3 1897.7 126.7 1938.8 136.8L1980 147L1980 151L1938.8 151C1897.7 151 1815.3 151 1732.8 151C1650.3 151 1567.7 151 1485.2 151C1402.7 151 1320.3 151 1237.8 151C1155.3 151 1072.7 151 990.2 151C907.7 151 825.3 151 742.8 151C660.3 151 577.7 151 495.2 151C412.7 151 330.3 151 247.8 151C165.3 151 82.7 151 41.3 151L0 151Z" fill="#9bb8db"></path><path d="M0 101L41.3 98.7C82.7 96.3 165.3 91.7 247.8 89.7C330.3 87.7 412.7 88.3 495.2 96.2C577.7 104 660.3 119 742.8 118C825.3 117 907.7 100 990.2 91.7C1072.7 83.3 1155.3 83.7 1237.8 88.2C1320.3 92.7 1402.7 101.3 1485.2 101.2C1567.7 101 1650.3 92 1732.8 92.8C1815.3 93.7 1897.7 104.3 1938.8 109.7L1980 115L1980 151L1938.8 151C1897.7 151 1815.3 151 1732.8 151C1650.3 151 1567.7 151 1485.2 151C1402.7 151 1320.3 151 1237.8 151C1155.3 151 1072.7 151 990.2 151C907.7 151 825.3 151 742.8 151C660.3 151 577.7 151 495.2 151C412.7 151 330.3 151 247.8 151C165.3 151 82.7 151 41.3 151L0 151Z" fill="#6497c9"></path><path d="M0 142L41.3 142.3C82.7 142.7 165.3 143.3 247.8 138.3C330.3 133.3 412.7 122.7 495.2 119.7C577.7 116.7 660.3 121.3 742.8 124.8C825.3 128.3 907.7 130.7 990.2 129.5C1072.7 128.3 1155.3 123.7 1237.8 119.5C1320.3 115.3 1402.7 111.7 1485.2 113.7C1567.7 115.7 1650.3 123.3 1732.8 123C1815.3 122.7 1897.7 114.3 1938.8 110.2L1980 106L1980 151L1938.8 151C1897.7 151 1815.3 151 1732.8 151C1650.3 151 1567.7 151 1485.2 151C1402.7 151 1320.3 151 1237.8 151C1155.3 151 1072.7 151 990.2 151C907.7 151 825.3 151 742.8 151C660.3 151 577.7 151 495.2 151C412.7 151 330.3 151 247.8 151C165.3 151 82.7 151 41.3 151L0 151Z" fill="#0077b6"></path></svg>