<svg id="visual" viewBox="0 0 1980 150" width="1980" height="150" xmlns="http://www.w3.org/2000/svg" xmlns:xlink="http://www.w3.org/1999/xlink" version="1.1"><rect x="0" y="0" width="1980" height="150" fill="#FFFFFF"></rect><path d="M0 78L41.3 76.8C82.7 75.7 165.3 73.3 247.8 64.7C330.3 56 412.7 41 495.2 34.2C577.7 27.3 660.3 28.7 742.8 35.5C825.3 42.3 907.7 54.7 990.2 66.7C1072.7 78.7 1155.3 90.3 1237.8 84C1320.3 77.7 1402.7 53.3 1485.2 45.3C1567.7 37.3 1650.3 45.7 1732.8 59.3C1815.3 73 1897.7 92 1938.8 101.5L1980 111L1980 151L1938.8 151C1897.7 151 1815.3 151 1732.8 151C1650.3 151 1567.7 151 1485.2 151C1402.7 151 1320.3 151 1237.8 151C1155.3 151 1072.7 151 990.2 151C907.7 151 825.3 151 742.8 151C660.3 151 577.7 151 495.2 151C412.7 151 330.3 151 247.8 151C165.3 151 82.7 151 41.3 151L0 151Z" fill="#ffffff"></path><path d="M0 116L41.3 109C82.7 102 165.3 88 247.8 75.5C330.3 63 412.7 52 495.2 60.7C577.7 69.3 660.3 97.7 742.8 104.3C825.3 111 907.7 96 990.2 83.7C1072.7 71.3 1155.3 61.7 1237.8 60.3C1320.3 59 1402.7 66 1485.2 63.7C1567.7 61.3 1650.3 49.7 1732.8 47.5C1815.3 45.3 1897.7 52.7 1938.8 56.3L1980 60L1980 151L1938.8 151C1897.7 151 1815.3 151 1732.8 151C1650.3 151 1567.7 151 1485.2 151C1402.7 151 1320.3 151 1237.8 151C1155.3 151 1072.7 151 990.2 151C907.7 151 825.3 151 742.8 151C660.3 151 577.7 151 495.2 151C412.7 151 330.3 151 247.8 151C165.3 151 82.7 151 41.3 151L0 151Z" fill="#edf2f8"></path><path d="M0 123L41.3 109.8C82.7 96.7 165.3 70.3 247.8 59.5C330.3 48.7 412.7 53.3 495.2 57.5C577.7 61.7 660.3 65.3 742.8 74.3C825.3 83.3 907.7 97.7 990.2 103.7C1072.7 109.7 1155.3 107.3 1237.8 99.2C1320.3 91 1402.7 77 1485.2 74.2C1567.7 71.3 1650.3 79.7 1732.8 82.7C1815.3 85.7 1897.7 83.3 1938.8 82.2L1980 81L1980 151L1938.8 151C1897.7 151 1815.3 151 1732.8 151C1650.3 151 1567.7 151 1485.2 151C1402.7 151 1320.3 151 1237.8 151C1155.3 151 1072.7 151 990.2 151C907.7 151 825.3 151 742.8 151C660.3 151 577.7 151 495.2 151C412.7 151 330.3 151 247.8 151C165.3 151 82.7 151 41.3 151L0 151Z" fill="#dbe5f2"></path><path d="M0 128L41.3 125.7C82.7 123.3 165.3 118.7 247.8 109.7C330.3 100.7 412.7 87.3 495.2 86.7C577.7 86 660.3 98 742.8 100.8C825.3 103.7 907.7 97.3 990.2 95C1072.7 92.7 1155.3 94.3 1237.8 93.8C1320.3 93.3 1402.7 90.7 1485.2 90.5C1567.7 90.3 1650.3 92.7 1732.8 95.8C1815.3 99 1897.7 103 1938.8 105L1980 107L1980 151L1938.8 151C1897.7 151 1815.3 151 1732.8 151C1650.3 151 1567.7 151 1485.2 151C1402.7 151 1320.3 151 1237.8 151C1155.3 151 1072.7 151 990.2 151C907.7 151 825.3 151 742.8 151C660.3 151 577.7 151 495.2 151C412.7 151 330.3 151 247.8 151C165.3 151 82.7 151 41.3 151L0 151Z" fill="#c9d8eb"></path><path d="M0 133L41.3 130.8C82.7 128.7 165.3 124.3 247.8 114C330.3 103.7 412.7 87.3 495.2 84.8C577.7 82.3 660.3 93.7 742.8 94.3C825.3 95 907.7 85 990.2 88.7C1072.7 92.3 1155.3 109.7 1237.8 116.8C1320.3 124 1402.7 121 1485.2 119.3C1567.7 117.7 1650.3 117.3 1732.8 116.2C1815.3 115 1897.7 113 1938.8 112L1980 111L1980 151L1938.8 151C1897.7 151 1815.3 151 1732.8 151C1650.3 151 1567.7 151 1485.2 151C1402.7 151 1320.3 151 1237.8 151C1155.3 151 1072.7 151 990.2 151C907.7 151 825.3 151 742.8 151C660.3 151 577.7 151 495.2 151C412.7 151 330.3 151 247.8 151C165.3 151 82.7 151 41.3 151L0 151Z" fill="#b7cbe5"></path><path d="M0 117L41.3 115.7C82.7 114.3 165.3 111.7 247.8 111.2C330.3 110.7 412.7 112.3 495.2 108.5C577.7 104.7 660.3 95.3 742.8 93.8C825.3 92.3 907.7 98.7 990.2 101.5C1072.7 104.3 1155.3 103.7 1237.8 103.5C1320.3 103.3 1402.7 103.7 1485.2 100.2C1567.7 96.7 1650.3 89.3 1732.8 88C1815.3 86.7 1897.7 91.3 1938.8 93.7L1980 96L1980 151L1938.8 151C1897.7 151 1815.3 151 1732.8 151C1650.3 151 1567.7 151 1485.2 151C1402.7 151 1320.3 151 1237.8 151C1155.3 151 1072.7 151 990.2 151C907.7 151 825.3 151 742.8 151C660.3 151 577.7 151 495.2 151C412.7 151 330.3 151 247.8 151C165.3 151 82.7 151 41.3 151L0 151Z" fill="#a4bede"></path><path d="M0 113L41.3 113.7C82.7 114.3 165.3 115.7 247.8 119.2C330.3 122.7 412.7 128.3 495.2 125.3C577.7 122.3 660.3 110.7 742.8 103.5C825.3 96.3 907.7 93.7 990.2 92.5C1072.7 91.3 1155.3 91.7 1237.8 95.8C1320.3 100 1402.7 108 1485.2 108.8C1567.7 109.7 1650.3 103.3 1732.8 98.2C1815.3 93 1897.7 89 1938.8 87L1980 85L1980 151L1938.8 151C1897.7 151 1815.3 151 1732.8 151C1650.3 151 1567.7 151 1485.2 151C1402.7 151 1320.3 151 1237.8 151C1155.3 151 1072.7 151 990.2 151C907.7 151 825.3 151 742.8 151C660.3 151 577.7 151 495.2 151C412.7 151 330.3 151 247.8 151C165.3 151 82.7 151 41.3 151L0 151Z" fill="#92b2d8"></path><path d="M0 109L41.3 106C82.7 103 165.3 97 247.8 94.5C330.3 92 412.7 93 495.2 98.2C577.7 103.3 660.3 112.7 742.8 116.3C825.3 120 907.7 118 990.2 117C1072.7 116 1155.3 116 1237.8 112.7C1320.3 109.3 1402.7 102.7 1485.2 103.3C1567.7 104 1650.3 112 1732.8 116.3C1815.3 120.7 1897.7 121.3 1938.8 121.7L1980 122L1980 151L1938.8 151C1897.7 151 1815.3 151 1732.8 151C1650.3 151 1567.7 151 1485.2 151C1402.7 151 1320.3 151 1237.8 151C1155.3 151 1072.7 151 990.2 151C907.7 151 825.3 151 742.8 151C660.3 151 577.7 151 495.2 151C412.7 151 330.3 151 247.8 151C165.3 151 82.7 151 41.3 151L0 151Z" fill="#7ea6d1"></path><path d="M0 125L41.3 121.2C82.7 117.3 165.3 109.7 247.8 107C330.3 104.3 412.7 106.7 495.2 106.5C577.7 106.3 660.3 103.7 742.8 106.8C825.3 110 907.7 119 990.2 120.2C1072.7 121.3 1155.3 114.7 1237.8 111.5C1320.3 108.3 1402.7 108.7 1485.2 113.3C1567.7 118 1650.3 127 1732.8 127.2C1815.3 127.3 1897.7 118.7 1938.8 114.3L1980 110L1980 151L1938.8 151C1897.7 151 1815.3 151 1732.8 151C1650.3 151 1567.7 151 1485.2 151C1402.7 151 1320.3 151 1237.8 151C1155.3 151 1072.7 151 990.2 151C907.7 151 825.3 151 742.8 151C660.3 151 577.7 151 495.2 151C412.7 151 330.3 151 247.8 151C165.3 151 82.7 151 41.3 151L0 151Z" fill="#6a9aca"></path><path d="M0 136L41.3 134C82.7 132 165.3 128 247.8 124C330.3 120 412.7 116 495.2 116.2C577.7 116.3 660.3 120.7 742.8 120.5C825.3 120.3 907.7 115.7 990.2 114.8C1072.7 114 1155.3 117 1237.8 117.2C1320.3 117.3 1402.7 114.7 1485.2 117C1567.7 119.3 1650.3 126.7 1732.8 129.7C1815.3 132.7 1897.7 131.3 1938.8 130.7L1980 130L1980 151L1938.8 151C1897.7 151 1815.3 151 1732.8 151C1650.3 151 1567.7 151 1485.2 151C1402.7 151 1320.3 151 1237.8 151C1155.3 151 1072.7 151 990.2 151C907.7 151 825.3 151 742.8 151C660.3 151 577.7 151 495.2 151C412.7 151 330.3 151 247.8 151C165.3 151 82.7 151 41.3 151L0 151Z" fill="#538ec3"></path><path d="M0 120L41.3 122.2C82.7 124.3 165.3 128.7 247.8 130.2C330.3 131.7 412.7 130.3 495.2 128.3C577.7 126.3 660.3 123.7 742.8 125.7C825.3 127.7 907.7 134.3 990.2 135.7C1072.7 137 1155.3 133 1237.8 132.3C1320.3 131.7 1402.7 134.3 1485.2 135.5C1567.7 136.7 1650.3 136.3 1732.8 134.3C1815.3 132.3 1897.7 128.7 1938.8 126.8L1980 125L1980 151L1938.8 151C1897.7 151 1815.3 151 1732.8 151C1650.3 151 1567.7 151 1485.2 151C1402.7 151 1320.3 151 1237.8 151C1155.3 151 1072.7 151 990.2 151C907.7 151 825.3 151 742.8 151C660.3 151 577.7 151 495.2 151C412.7 151 330.3 151 247.8 151C165.3 151 82.7 151 41.3 151L0 151Z" fill="#3882bd"></path><path d="M0 133L41.3 134.8C82.7 136.7 165.3 140.3 247.8 141.8C330.3 143.3 412.7 142.7 495.2 141C577.7 139.3 660.3 136.7 742.8 136.3C825.3 136 907.7 138 990.2 138.5C1072.7 139 1155.3 138 1237.8 136.5C1320.3 135 1402.7 133 1485.2 133.3C1567.7 133.7 1650.3 136.3 1732.8 138.3C1815.3 140.3 1897.7 141.7 1938.8 142.3L1980 143L1980 151L1938.8 151C1897.7 151 1815.3 151 1732.8 151C1650.3 151 1567.7 151 1485.2 151C1402.7 151 1320.3 151 1237.8 151C1155.3 151 1072.7 151 990.2 151C907.7 151 825.3 151 742.8 151C660.3 151 577.7 151 495.2 151C412.7 151 330.3 151 247.8 151C165.3 151 82.7 151 41.3 151L0 151Z" fill="#0077b6"></path></svg>