<svg id="visual" viewBox="0 0 1980 150" width="1980" height="150" xmlns="http://www.w3.org/2000/svg" xmlns:xlink="http://www.w3.org/1999/xlink" version="1.1"><rect x="0" y="0" width="1980" height="150" fill="#FFFFFF"></rect><path d="M0 126L41.3 107.3C82.7 88.7 165.3 51.3 247.8 31.5C330.3 11.7 412.7 9.3 495.2 27C577.7 44.7 660.3 82.3 742.8 91.8C825.3 101.3 907.7 82.7 990.2 66.8C1072.7 51 1155.3 38 1237.8 38.3C1320.3 38.7 1402.7 52.3 1485.2 52.5C1567.7 52.7 1650.3 39.3 1732.8 32C1815.3 24.7 1897.7 23.3 1938.8 22.7L1980 22L1980 0L1938.8 0C1897.7 0 1815.3 0 1732.8 0C1650.3 0 1567.7 0 1485.2 0C1402.7 0 1320.3 0 1237.8 0C1155.3 0 1072.7 0 990.2 0C907.7 0 825.3 0 742.8 0C660.3 0 577.7 0 495.2 0C412.7 0 330.3 0 247.8 0C165.3 0 82.7 0 41.3 0L0 0Z" fill="#ffffff"></path><path d="M0 88L41.3 90.3C82.7 92.7 165.3 97.3 247.8 83.8C330.3 70.3 412.7 38.7 495.2 36.3C577.7 34 660.3 61 742.8 68.8C825.3 76.7 907.7 65.3 990.2 66C1072.7 66.7 1155.3 79.3 1237.8 88C1320.3 96.7 1402.7 101.3 1485.2 100.3C1567.7 99.3 1650.3 92.7 1732.8 86.3C1815.3 80 1897.7 74 1938.8 71L1980 68L1980 0L1938.8 0C1897.7 0 1815.3 0 1732.8 0C1650.3 0 1567.7 0 1485.2 0C1402.7 0 1320.3 0 1237.8 0C1155.3 0 1072.7 0 990.2 0C907.7 0 825.3 0 742.8 0C660.3 0 577.7 0 495.2 0C412.7 0 330.3 0 247.8 0C165.3 0 82.7 0 41.3 0L0 0Z" fill="#cedbed"></path><path d="M0 89L41.3 79.5C82.7 70 165.3 51 247.8 48.3C330.3 45.7 412.7 59.3 495.2 61.2C577.7 63 660.3 53 742.8 43.5C825.3 34 907.7 25 990.2 29C1072.7 33 1155.3 50 1237.8 55.7C1320.3 61.3 1402.7 55.7 1485.2 57.5C1567.7 59.3 1650.3 68.7 1732.8 72.3C1815.3 76 1897.7 74 1938.8 73L1980 72L1980 0L1938.8 0C1897.7 0 1815.3 0 1732.8 0C1650.3 0 1567.7 0 1485.2 0C1402.7 0 1320.3 0 1237.8 0C1155.3 0 1072.7 0 990.2 0C907.7 0 825.3 0 742.8 0C660.3 0 577.7 0 495.2 0C412.7 0 330.3 0 247.8 0C165.3 0 82.7 0 41.3 0L0 0Z" fill="#9bb8db"></path><path d="M0 1L41.3 8.3C82.7 15.7 165.3 30.3 247.8 41C330.3 51.7 412.7 58.3 495.2 61.8C577.7 65.3 660.3 65.7 742.8 62.8C825.3 60 907.7 54 990.2 47C1072.7 40 1155.3 32 1237.8 31C1320.3 30 1402.7 36 1485.2 38.7C1567.7 41.3 1650.3 40.7 1732.8 36.2C1815.3 31.7 1897.7 23.3 1938.8 19.2L1980 15L1980 0L1938.8 0C1897.7 0 1815.3 0 1732.8 0C1650.3 0 1567.7 0 1485.2 0C1402.7 0 1320.3 0 1237.8 0C1155.3 0 1072.7 0 990.2 0C907.7 0 825.3 0 742.8 0C660.3 0 577.7 0 495.2 0C412.7 0 330.3 0 247.8 0C165.3 0 82.7 0 41.3 0L0 0Z" fill="#6497c9"></path><path d="M0 27L41.3 25C82.7 23 165.3 19 247.8 19.2C330.3 19.3 412.7 23.7 495.2 27.7C577.7 31.7 660.3 35.3 742.8 36.3C825.3 37.3 907.7 35.7 990.2 32.5C1072.7 29.3 1155.3 24.7 1237.8 19.2C1320.3 13.7 1402.7 7.3 1485.2 4.5C1567.7 1.7 1650.3 2.3 1732.8 8.7C1815.3 15 1897.7 27 1938.8 33L1980 39L1980 0L1938.8 0C1897.7 0 1815.3 0 1732.8 0C1650.3 0 1567.7 0 1485.2 0C1402.7 0 1320.3 0 1237.8 0C1155.3 0 1072.7 0 990.2 0C907.7 0 825.3 0 742.8 0C660.3 0 577.7 0 495.2 0C412.7 0 330.3 0 247.8 0C165.3 0 82.7 0 41.3 0L0 0Z" fill="#0077b6"></path></svg>